<svg width="98" height="30" viewBox="0 0 98 30" fill="none" xmlns="http://www.w3.org/2000/svg">
<g clip-path="url(#clip0_2_384)">
<path d="M28.1198 20.5099C26.9727 23.6455 24.7683 26.2884 21.8821 27.9883C18.9959 29.6881 15.6067 30.3397 12.2917 29.8321C8.97681 29.3245 5.9413 27.6891 3.70251 25.2044C1.46372 22.7198 0.160105 19.5397 0.0138062 16.206C-0.132493 12.8723 0.887569 9.59133 2.90019 6.92202C4.91281 4.25273 7.79344 2.36028 11.0513 1.56716C14.3092 0.774035 17.7426 1.1293 20.7667 2.57242C23.7908 4.01554 26.2184 6.45725 27.6358 9.48142L23.4311 11.4322C22.4672 9.37579 20.8165 7.71552 18.7602 6.73423C16.704 5.75294 14.3693 5.51137 12.154 6.05069C9.93877 6.59 7.98005 7.87677 6.61153 9.69182C5.24298 11.5069 4.54937 13.7379 4.64885 16.0047C4.74833 18.2715 5.63475 20.4338 7.15708 22.1234C8.67939 23.8128 10.7434 24.9249 12.9975 25.2701C15.2515 25.6152 17.5562 25.1721 19.5187 24.0163C21.4811 22.8604 22.9801 21.0633 23.7601 18.9312L28.1198 20.5099Z" fill="black" fill-opacity="0.6"/>
<path d="M39.9625 19.951C38.8016 21.091 37.3844 21.661 35.7108 21.661C34.0373 21.661 32.62 21.091 31.4591 19.951C30.3133 18.796 29.7404 17.386 29.7404 15.721C29.7404 14.056 30.3133 12.6535 31.4591 11.5135C32.62 10.3585 34.0373 9.78105 35.7108 9.78105C37.3844 9.78105 38.8016 10.3585 39.9625 11.5135C41.1234 12.6535 41.7039 14.056 41.7039 15.721C41.7039 17.386 41.1234 18.796 39.9625 19.951ZM33.5171 17.9485C34.1051 18.5335 34.8364 18.826 35.7108 18.826C36.5853 18.826 37.3165 18.5335 37.9045 17.9485C38.4925 17.3635 38.7865 16.621 38.7865 15.721C38.7865 14.821 38.4925 14.0785 37.9045 13.4935C37.3165 12.9085 36.5853 12.616 35.7108 12.616C34.8364 12.616 34.1051 12.9085 33.5171 13.4935C32.9442 14.0785 32.6577 14.821 32.6577 15.721C32.6577 16.621 32.9442 17.3635 33.5171 17.9485ZM51.2194 10.096H54.1367V21.346H51.2194V20.086C50.5107 21.136 49.3875 21.661 47.8497 21.661C46.6133 21.661 45.5881 21.2485 44.774 20.4235C43.9749 19.5985 43.5754 18.4585 43.5754 17.0035V10.096H46.4927V16.6435C46.4927 17.3935 46.6963 17.971 47.1034 18.376C47.5104 18.766 48.0532 18.961 48.7317 18.961C49.4855 18.961 50.0886 18.7285 50.5409 18.2635C50.9932 17.7985 51.2194 17.101 51.2194 16.171V10.096ZM63.0957 9.78105C64.332 9.78105 65.3497 10.1935 66.1488 11.0185C66.963 11.8435 67.37 12.9835 67.37 14.4385V21.346H64.4527V14.7985C64.4527 14.0485 64.2491 13.4785 63.842 13.0885C63.435 12.6835 62.8922 12.481 62.2137 12.481C61.4599 12.481 60.8568 12.7135 60.4045 13.1785C59.9522 13.6435 59.726 14.341 59.726 15.271V21.346H56.8087V10.096H59.726V11.356C60.4347 10.306 61.5579 9.78105 63.0957 9.78105ZM76.3292 12.886H73.7737V17.566C73.7737 17.956 73.8717 18.241 74.0677 18.421C74.2637 18.601 74.5501 18.706 74.9271 18.736C75.304 18.751 75.7714 18.7435 76.3292 18.7135V21.346C74.324 21.571 72.9067 21.3835 72.0775 20.7835C71.2634 20.1835 70.8563 19.111 70.8563 17.566V12.886H68.8888V10.096H70.8563V7.82354L73.7737 6.94604V10.096H76.3292V12.886ZM80.498 16.9135C80.89 18.3235 81.9529 19.0285 83.6868 19.0285C84.8024 19.0285 85.6468 18.6535 86.2197 17.9035L88.5717 19.2535C87.456 20.8585 85.8126 21.661 83.6415 21.661C81.772 21.661 80.2718 21.0985 79.1411 19.9735C78.0103 18.8485 77.4449 17.431 77.4449 15.721C77.4449 14.026 78.0028 12.616 79.1184 11.491C80.2341 10.351 81.6664 9.78105 83.4154 9.78105C85.0738 9.78105 86.4383 10.351 87.5088 11.491C88.5943 12.631 89.1371 14.041 89.1371 15.721C89.1371 16.096 89.0994 16.4935 89.024 16.9135H80.498ZM80.4528 14.6635H86.2197C86.0538 13.8985 85.7071 13.3285 85.1794 12.9535C84.6668 12.5785 84.0788 12.391 83.4154 12.391C82.6314 12.391 81.9831 12.5935 81.4704 12.9985C80.9578 13.3885 80.6186 13.9435 80.4528 14.6635ZM94.091 12.031C94.3624 11.311 94.8071 10.771 95.4253 10.411C96.0585 10.051 96.7596 9.87105 97.5285 9.87105V13.111C96.639 13.006 95.8399 13.186 95.1313 13.651C94.4378 14.116 94.091 14.8885 94.091 15.9685V21.346H91.1736V10.096H94.091V12.031Z" fill="black" fill-opacity="0.3"/>
</g>
<defs>
<clipPath id="clip0_2_384">
<rect width="98" height="30" fill="white"/>
</clipPath>
</defs>
</svg>
